<svg width="1200" height="700" viewBox="0 0 1200 700" fill="none" xmlns="http://www.w3.org/2000/svg">
  <rect width="1200" height="700" fill="#F8FAFC"/>
  <rect x="50" y="50" width="1100" height="600" rx="16" fill="white"/>
  <rect x="50" y="50" width="1100" height="600" rx="16" stroke="#E2E8F0" stroke-width="2"/>
  <rect x="50" y="50" width="1100" height="50" rx="16" fill="#F1F5F9"/>
  <rect x="50" y="100" width="1100" height="2" fill="#E2E8F0"/>
  <circle cx="80" cy="75" r="6" fill="#EF4444"/>
  <circle cx="105" cy="75" r="6" fill="#F59E0B"/>
  <circle cx="130" cy="75" r="6" fill="#10B981"/>
  <rect x="50" y="100" width="250" height="550" fill="#F8FAFC"/>
  <rect x="300" y="100" width="2" height="550" fill="#E2E8F0"/>
  <rect x="70" y="130" width="210" height="40" rx="8" fill="#EFF6FF"/>
  <rect x="85" y="142" width="24" height="24" rx="4" fill="#2563EB"/>
  <rect x="120" y="145" width="120" height="8" rx="4" fill="#2563EB"/>
  <rect x="120" y="157" width="80" height="6" rx="3" fill="#93C5FD"/>
  <rect x="70" y="185" width="210" height="40" rx="8" fill="white"/>
  <rect x="85" y="197" width="24" height="24" rx="4" fill="#CBD5E1"/>
  <rect x="120" y="200" width="100" height="8" rx="4" fill="#94A3B8"/>
  <rect x="120" y="212" width="70" height="6" rx="3" fill="#CBD5E1"/>
  <rect x="70" y="240" width="210" height="40" rx="8" fill="white"/>
  <rect x="85" y="252" width="24" height="24" rx="4" fill="#CBD5E1"/>
  <rect x="120" y="255" width="90" height="8" rx="4" fill="#94A3B8"/>
  <rect x="120" y="267" width="60" height="6" rx="3" fill="#CBD5E1"/>
  <rect x="340" y="130" width="770" height="60" rx="8" fill="white" stroke="#E2E8F0" stroke-width="2"/>
  <rect x="360" y="150" width="300" height="10" rx="5" fill="#CBD5E1"/>
  <rect x="360" y="170" width="200" height="8" rx="4" fill="#E2E8F0"/>
  <rect x="340" y="220" width="370" height="200" rx="12" fill="white" stroke="#E2E8F0" stroke-width="2"/>
  <rect x="360" y="240" width="330" height="100" rx="8" fill="#EFF6FF"/>
  <rect x="360" y="355" width="250" height="10" rx="5" fill="#CBD5E1"/>
  <rect x="360" y="375" width="180" height="8" rx="4" fill="#E2E8F0"/>
  <rect x="740" y="220" width="370" height="200" rx="12" fill="white" stroke="#E2E8F0" stroke-width="2"/>
  <rect x="760" y="240" width="330" height="100" rx="8" fill="#EFF6FF"/>
  <rect x="760" y="355" width="250" height="10" rx="5" fill="#CBD5E1"/>
  <rect x="760" y="375" width="180" height="8" rx="4" fill="#E2E8F0"/>
  <rect x="340" y="450" width="770" height="150" rx="12" fill="white" stroke="#E2E8F0" stroke-width="2"/>
  <rect x="360" y="470" width="730" height="60" rx="8" fill="#F8FAFC"/>
  <rect x="360" y="545" width="300" height="10" rx="5" fill="#CBD5E1"/>
  <rect x="360" y="565" width="200" height="8" rx="4" fill="#E2E8F0"/>
  <ellipse cx="600" cy="665" rx="400" ry="15" fill="#CBD5E1" opacity="0.3"/>
</svg>