<svg width="400" height="300" viewBox="0 0 400 300" fill="none" xmlns="http://www.w3.org/2000/svg">
  <rect width="400" height="300" fill="#F8FAFC"/>
  <rect x="50" y="50" width="300" height="200" rx="12" fill="white"/>
  <rect x="50" y="50" width="300" height="200" rx="12" stroke="#E2E8F0" stroke-width="2"/>
  <circle cx="200" cy="120" r="30" fill="#EFF6FF"/>
  <circle cx="200" cy="120" r="18" stroke="#2563EB" stroke-width="3" fill="none"/>
  <path d="M200 95v10m0 30v10m25-25h-10m-30 0h-10m21.2-21.2l-7.1 7.1m28.3 28.3l-7.1 7.1m0-35.4l7.1 7.1m-28.3 28.3l7.1 7.1" stroke="#2563EB" stroke-width="3" stroke-linecap="round"/>
  <rect x="120" y="170" width="160" height="8" rx="4" fill="#CBD5E1"/>
  <rect x="140" y="190" width="120" height="6" rx="3" fill="#E2E8F0"/>
  <ellipse cx="200" cy="260" rx="120" ry="8" fill="#E2E8F0" opacity="0.5"/>
</svg>